<svg enable-background="new 0 0 800 300" viewBox="0 0 800 300" xmlns="http://www.w3.org/2000/svg"><g fill="#00acd7"><path d="m187.117 118.299h-108.365l-8.669 12.302 115.027-.064z"/><path d="m183.29 143.797h-140.236l-8.918 12.254 147.148-.105z"/><path d="m179.463 169.287h-59.914l-8.056 12.302 65.965-.048z"/></g><g fill="#333"><path d="m229.514 193.914h-24.628l14.928-71.744h-19.967l4.346-20.345h64.752l-4.472 20.345h-20.03z"/><path d="m291.61 195.174c-8.903 0-15.832-2.488-20.786-7.464-4.956-4.977-7.433-11.895-7.433-20.755 0-8.859 1.753-16.85 5.26-23.967 3.505-7.118 8.314-12.513 14.424-16.188 6.11-3.674 13.175-5.511 21.196-5.511 7.978 0 14.256 1.806 18.833 5.417 4.577 3.612 6.866 8.42 6.866 14.424 0 8.44-3.286 14.918-9.858 19.432-6.572 4.515-16.073 6.771-28.502 6.771h-3.716v1.008c0 6.215 3.443 9.322 10.33 9.322 3.317 0 6.571-.493 9.763-1.48 3.191-.986 6.823-2.551 10.897-4.692v17.259c-4.704 2.394-9.092 4.062-13.165 5.008-4.073.944-8.776 1.416-14.109 1.416zm9.952-57.383c-2.562 0-4.956 1.459-7.181 4.377-2.226 2.919-3.57 6.226-4.031 9.921h1.827c4.577 0 8.167-.871 10.771-2.615 2.603-1.742 3.905-4.041 3.905-6.897 0-1.343-.42-2.477-1.26-3.401-.84-.922-2.183-1.385-4.031-1.385z"/><path d="m370.336 193.914 8.252-39.746c.629-3.779.945-6.319.945-7.622 0-3.947-1.512-5.921-4.535-5.921-2.857 0-5.24 1.565-7.15 4.692-1.912 3.129-3.539 7.759-4.882 13.889l-7.433 34.707h-24.376l15.054-71.366h19.463l-1.008 11.779h.504c2.561-4.787 5.438-8.157 8.63-10.109 3.189-1.953 7.201-2.929 12.031-2.929 4.912 0 8.701 1.124 11.369 3.37 2.666 2.247 4.544 5.47 5.636 9.669h.504c2.729-4.451 5.857-7.737 9.385-9.857 3.527-2.12 7.623-3.181 12.283-3.181 5.922 0 10.414 1.774 13.48 5.323 3.064 3.549 4.598 8.787 4.598 15.715 0 4.074-.463 8.377-1.387 12.913l-7.873 38.675h-24.377l8.127-39.746c.586-2.351.881-5.144.881-8.377 0-1.679-.4-2.96-1.197-3.842s-1.869-1.323-3.211-1.323c-3.109 0-5.617 1.596-7.527 4.787-1.912 3.192-3.518 7.958-4.818 14.298l-6.992 34.203h-24.376z"/><path d="m487.044 195.174c-6.006 0-10.856-3.044-14.551-9.133h-.504c-.504 6.971-1.68 14.76-3.527 23.368l-3.213 15.495h-24.376l21.668-102.356h19.464l-.756 8h.504c4.031-6.173 9.447-9.259 16.25-9.259 6.551 0 11.694 2.341 15.433 7.023 3.737 4.683 5.606 11.118 5.606 19.306 0 8.525-1.471 16.557-4.41 24.094-2.939 7.538-6.834 13.333-11.684 17.385s-10.152 6.077-15.904 6.077zm1.7-54.296c-2.101 0-4.095 1.197-5.983 3.59-1.891 2.394-3.392 5.627-4.504 9.7-1.113 4.074-1.67 8.211-1.67 12.409 0 2.73.482 4.913 1.449 6.551.966 1.638 2.33 2.456 4.094 2.456 2.016 0 3.947-1.196 5.795-3.59s3.349-5.605 4.504-9.637c1.154-4.031 1.732-8.168 1.732-12.41 0-6.046-1.806-9.069-5.417-9.069z"/><path d="m547.062 193.914h-24.376l20.723-98.01h24.377z"/><path d="m621.882 193.914h-19.463l.63-7.748h-.504c-2.353 3.275-4.893 5.597-7.622 6.961s-5.816 2.047-9.259 2.047c-6.636 0-11.675-2.341-15.117-7.023-3.443-4.682-5.165-11.41-5.165-20.188 0-7.517 1.532-15.181 4.598-22.991s6.939-13.71 11.622-17.7c4.682-3.989 9.857-5.984 15.526-5.984 3.527 0 6.635.788 9.322 2.362 2.687 1.575 5.08 4.147 7.181 7.716h.504l3.339-8.818h19.525zm-26.203-18.33c2.1 0 4.104-1.228 6.016-3.685 1.91-2.456 3.434-5.741 4.566-9.857 1.135-4.115 1.701-8.146 1.701-12.094 0-2.729-.42-4.923-1.26-6.582-.841-1.659-2.142-2.488-3.905-2.488-3.191 0-6.078 2.656-8.661 7.968-2.582 5.313-3.873 11.223-3.873 17.732 0 6.005 1.804 9.006 5.416 9.006z"/><path d="m671.004 175.584c2.771 0 6.613-.985 11.526-2.96v18.329c-5.711 2.814-12.85 4.221-21.416 4.221-6.215 0-10.929-1.333-14.141-4-3.213-2.666-4.819-7.044-4.819-13.133 0-3.19.504-7.139 1.512-11.842l5.291-25.322h-9.699l2.582-11.968 13.731-5.543 8.63-15.117h16.25l-3.086 14.298h18.141l-3.969 18.33h-18.203l-5.291 24.125c-.672 3.234-1.008 5.439-1.008 6.614 0 2.646 1.322 3.968 3.969 3.968z"/><path d="m724.66 195.174c-8.903 0-15.832-2.488-20.786-7.464-4.955-4.977-7.433-11.895-7.433-20.755 0-8.859 1.753-16.85 5.26-23.967 3.506-7.118 8.314-12.513 14.424-16.188 6.11-3.674 13.175-5.511 21.195-5.511 7.979 0 14.257 1.806 18.834 5.417 4.576 3.612 6.865 8.42 6.865 14.424 0 8.44-3.286 14.918-9.857 19.432-6.572 4.515-16.072 6.771-28.502 6.771h-3.717v1.008c0 6.215 3.443 9.322 10.33 9.322 3.317 0 6.572-.493 9.764-1.48 3.19-.986 6.823-2.551 10.896-4.692v17.259c-4.703 2.394-9.092 4.062-13.164 5.008-4.073.944-8.777 1.416-14.109 1.416zm9.952-57.383c-2.562 0-4.955 1.459-7.181 4.377-2.227 2.919-3.569 6.226-4.031 9.921h1.826c4.577 0 8.167-.871 10.771-2.615 2.604-1.742 3.905-4.041 3.905-6.897 0-1.343-.42-2.477-1.26-3.401-.839-.922-2.182-1.385-4.03-1.385z"/></g></svg>
